<?xml version="1.0" encoding="UTF-8" standalone="no"?>
<!DOCTYPE svg PUBLIC "-//W3C//DTD SVG 1.1//EN" "http://www.w3.org/Graphics/SVG/1.1/DTD/svg11.dtd">
<svg width="100%" height="100%" viewBox="0 0 496 512" version="1.1" xmlns="http://www.w3.org/2000/svg" xmlns:xlink="http://www.w3.org/1999/xlink" xml:space="preserve" xmlns:serif="http://www.serif.com/" style="fill-rule:evenodd;clip-rule:evenodd;stroke-linejoin:round;stroke-miterlimit:2;">
    <path d="M248,8C111,8 0,119 0,256C0,393 111,504 248,504C385,504 496,393 496,256C496,119 385,8 248,8ZM114,404C126,389.6 136.5,374 144.8,356.9L118,343.9C111.2,357.8 102.7,370.4 93.1,382.3C37.7,314.6 28.3,208.9 93.1,129.6C102.7,141.4 111.2,154 117.9,167.8L144.7,154.7C136.4,137.7 126,122.2 114,107.9C187.3,41.5 302.4,35.9 382,107.9C370,122.2 359.6,137.8 351.3,154.9L378.1,167.9C384.9,154 393.4,141.4 402.9,129.6C458.7,197.9 467.3,303.5 403,382.3C393.4,370.5 384.9,357.9 378.1,344L351.3,357.1C359.6,374.1 370,389.7 382.1,404C308.5,470.7 193.3,475.9 114,404ZM156.7,327.5L128.4,318.3C140.6,280.8 142.4,236.8 128.3,193.6L156.6,184.4C172.9,234.4 170.6,284.8 156.7,327.5ZM367.7,318.3L339.4,327.5C323.1,277.5 325.4,227 339.3,184.4L367.6,193.6C355.4,231 353.6,275.1 367.7,318.3Z" style="fill:rgb(13,202,242);fill-rule:nonzero;"/>
</svg>
