<?xml version="1.0" encoding="UTF-8" standalone="no"?>
<!DOCTYPE svg PUBLIC "-//W3C//DTD SVG 1.1//EN" "http://www.w3.org/Graphics/SVG/1.1/DTD/svg11.dtd">
<svg width="100%" height="100%" viewBox="0 0 512 512" version="1.1" xmlns="http://www.w3.org/2000/svg" xmlns:xlink="http://www.w3.org/1999/xlink" xml:space="preserve" xmlns:serif="http://www.serif.com/" style="fill-rule:evenodd;clip-rule:evenodd;stroke-linejoin:round;stroke-miterlimit:2;">
    <path d="M239.1,7.5L31.1,85.5C12.4,92.5 -0,110.5 -0,130.5L-0,355.6C-0,373.8 10.3,390.4 26.5,398.5L234.5,502.5C248,509.3 263.9,509.3 277.4,502.5L485.4,398.5C501.7,390.4 511.9,373.7 511.9,355.6L511.9,130.5C511.9,110.5 499.5,92.6 480.8,85.6L272.8,7.6C262,3.4 250,3.4 239.1,7.5ZM256,52.5L464,130.5L464,130.8L256,215.3L48,130.8L48,130.5L256,52.5ZM48,182.6L232,257.4L232,447.6L48,355.6L48,182.6ZM280,447.5L280,257.4L464,182.6L464,355.5L280,447.5Z" style="fill:rgb(13,202,242);fill-rule:nonzero;"/>
</svg>
