<?xml version="1.0" encoding="UTF-8" standalone="no"?>
<!DOCTYPE svg PUBLIC "-//W3C//DTD SVG 1.1//EN" "http://www.w3.org/Graphics/SVG/1.1/DTD/svg11.dtd">
<svg width="100%" height="100%" viewBox="0 0 448 512" version="1.1" xmlns="http://www.w3.org/2000/svg" xmlns:xlink="http://www.w3.org/1999/xlink" xml:space="preserve" xmlns:serif="http://www.serif.com/" style="fill-rule:evenodd;clip-rule:evenodd;stroke-linejoin:round;stroke-miterlimit:2;">
    <path d="M0,180L0,56C0,42.7 10.7,32 24,32L148,32C154.6,32 160,37.4 160,44L160,68C160,74.6 154.6,80 148,80L48,80L48,180C48,186.6 42.6,192 36,192L12,192C5.4,192 0,186.6 0,180ZM288,44L288,68C288,74.6 293.4,80 300,80L400,80L400,180C400,186.6 405.4,192 412,192L436,192C442.6,192 448,186.6 448,180L448,56C448,42.7 437.3,32 424,32L300,32C293.4,32 288,37.4 288,44ZM436,320L412,320C405.4,320 400,325.4 400,332L400,432L300,432C293.4,432 288,437.4 288,444L288,468C288,474.6 293.4,480 300,480L424,480C437.3,480 448,469.3 448,456L448,332C448,325.4 442.6,320 436,320ZM160,468L160,444C160,437.4 154.6,432 148,432L48,432L48,332C48,325.4 42.6,320 36,320L12,320C5.4,320 0,325.4 0,332L0,456C0,469.3 10.7,480 24,480L148,480C154.6,480 160,474.6 160,468Z" style="fill:rgb(13,202,242);fill-rule:nonzero;"/>
</svg>
