<?xml version="1.0" encoding="UTF-8" standalone="no"?>
<!DOCTYPE svg PUBLIC "-//W3C//DTD SVG 1.1//EN" "http://www.w3.org/Graphics/SVG/1.1/DTD/svg11.dtd">
<svg width="100%" height="100%" viewBox="0 0 512 512" version="1.1" xmlns="http://www.w3.org/2000/svg" xmlns:xlink="http://www.w3.org/1999/xlink" xml:space="preserve" xmlns:serif="http://www.serif.com/" style="fill-rule:evenodd;clip-rule:evenodd;stroke-linejoin:round;stroke-miterlimit:2;">
    <path d="M497.6,0L334.4,0.17C326.5,0.17 320,6.67 320,14.57L320,47.88C320,47.881 320,47.882 320,47.883C320,55.783 326.5,62.283 334.4,62.283C334.497,62.283 334.593,62.282 334.69,62.28L408.32,59.56L410.38,61.62L131.52,340.49C129.261,342.741 127.991,345.801 127.991,348.99C127.991,352.179 129.261,355.239 131.52,357.49L154.52,380.49C156.771,382.749 159.831,384.019 163.02,384.019C166.209,384.019 169.269,382.749 171.52,380.49L450.38,101.62L452.44,103.68L449.72,177.31C449.718,177.407 449.717,177.503 449.717,177.6C449.717,185.5 456.217,192 464.117,192C464.118,192 464.119,192 464.12,192L497.43,192C505.33,192 511.83,185.5 511.83,177.6L512,14.4C512,6.5 505.5,0 497.6,-0ZM432,288L416,288C407.223,288 400,295.223 400,304L400,458C400,461.292 397.292,464 394,464L54,464C50.708,464 48,461.292 48,458L48,118C48,114.708 50.708,112 54,112L208,112C216.777,112 224,104.777 224,96L224,80C224,71.223 216.777,64 208,64L48,64C21.668,64 -0,85.668 0,112L0,464C0,490.332 21.668,512 48,512L400,512C426.332,512 448,490.332 448,464L448,304C448,295.223 440.777,288 432,288Z" style="fill:rgb(13,202,242);fill-rule:nonzero;"/>
</svg>
