<?xml version="1.0" encoding="UTF-8" standalone="no"?>
<!DOCTYPE svg PUBLIC "-//W3C//DTD SVG 1.1//EN" "http://www.w3.org/Graphics/SVG/1.1/DTD/svg11.dtd">
<svg width="100%" height="100%" viewBox="0 0 512 512" version="1.1" xmlns="http://www.w3.org/2000/svg" xmlns:xlink="http://www.w3.org/1999/xlink" xml:space="preserve" xmlns:serif="http://www.serif.com/" style="fill-rule:evenodd;clip-rule:evenodd;stroke-linejoin:round;stroke-miterlimit:2;">
    <path d="M497.9,150.5L361.5,14.1C352.5,5.1 340.3,0 327.6,0L184.5,0C171.8,0 159.6,5.1 150.6,14.1L14.1,150.5C5.1,159.5 0,171.7 0,184.4L0,327.5C0,340.2 5.1,352.4 14.1,361.4L150.6,497.9C159.6,506.9 171.8,512 184.5,512L327.6,512C340.3,512 352.5,506.9 361.5,497.9L498,361.4C507,352.4 512.1,340.2 512.1,327.5L512.1,184.5C512,171.7 506.9,159.5 497.9,150.5ZM464,327.5L327.5,464L184.5,464L48,327.5L48,184.5L184.5,48L327.6,48L464,184.5L464,327.5Z" style="fill:rgb(13,202,242);fill-rule:nonzero;"/>
</svg>
