<?xml version="1.0" encoding="UTF-8" standalone="no"?>
<!DOCTYPE svg PUBLIC "-//W3C//DTD SVG 1.1//EN" "http://www.w3.org/Graphics/SVG/1.1/DTD/svg11.dtd">
<svg width="100%" height="100%" viewBox="0 0 448 512" version="1.1" xmlns="http://www.w3.org/2000/svg" xmlns:xlink="http://www.w3.org/1999/xlink" xml:space="preserve" xmlns:serif="http://www.serif.com/" style="fill-rule:evenodd;clip-rule:evenodd;stroke-linejoin:round;stroke-miterlimit:2;">
    <path d="M246.6,177.9L302.1,233.4C304.4,235.7 304.4,239.5 302.1,241.9L166.4,377.6L109.3,383.9C101.7,384.7 95.2,378.3 96,370.6L102.3,313.5L238,177.8C240.4,175.6 244.2,175.6 246.6,177.9ZM345,165.1L314.9,135C305.5,125.6 290.3,125.6 281,135L257.9,158.1C255.6,160.4 255.6,164.2 257.9,166.6L313.4,222.1C315.7,224.4 319.5,224.4 321.9,222.1L345,199C354.3,189.7 354.3,174.5 345,165.1ZM448,80L448,432C448,458.5 426.5,480 400,480L48,480C21.5,480 0,458.5 0,432L0,80C0,53.5 21.5,32 48,32L400,32C426.5,32 448,53.5 448,80ZM400,426L400,86C400,82.7 397.3,80 394,80L54,80C50.7,80 48,82.7 48,86L48,426C48,429.3 50.7,432 54,432L394,432C397.3,432 400,429.3 400,426Z" style="fill:rgb(13,202,242);fill-rule:nonzero;"/>
</svg>
