<?xml version="1.0" encoding="UTF-8" standalone="no"?>
<!DOCTYPE svg PUBLIC "-//W3C//DTD SVG 1.1//EN" "http://www.w3.org/Graphics/SVG/1.1/DTD/svg11.dtd">
<svg width="100%" height="100%" viewBox="0 0 512 512" version="1.1" xmlns="http://www.w3.org/2000/svg" xmlns:xlink="http://www.w3.org/1999/xlink" xml:space="preserve" xmlns:serif="http://www.serif.com/" style="fill-rule:evenodd;clip-rule:evenodd;stroke-linejoin:round;stroke-miterlimit:2;">
    <path d="M96,64L180,64C186.6,64 192,69.4 192,76L192,100C192,106.6 186.6,112 180,112L96,112C69.5,112 48,133.5 48,160L48,352C48,378.5 69.5,400 96,400L180,400C186.6,400 192,405.4 192,412L192,436C192,442.6 186.6,448 180,448L96,448C43,448 0,405 0,352L0,160C0,107 43,64 96,64ZM327.1,83.5L307.5,103.1C302.7,107.9 302.8,115.6 307.7,120.2L420.8,230L172,230C165.4,230 160,235.4 160,242L160,270C160,276.6 165.4,282 172,282L420.8,282L307.7,391.7C302.9,396.4 302.8,404.1 307.5,408.8L327.1,428.4C331.8,433.1 339.4,433.1 344.1,428.4L508.5,264.4C513.2,259.7 513.2,252.1 508.5,247.4L344.1,83.4C339.4,78.8 331.8,78.8 327.1,83.5Z" style="fill:rgb(13,202,242);fill-rule:nonzero;"/>
</svg>
