<?xml version="1.0" encoding="UTF-8" standalone="no"?>
<!DOCTYPE svg PUBLIC "-//W3C//DTD SVG 1.1//EN" "http://www.w3.org/Graphics/SVG/1.1/DTD/svg11.dtd">
<svg width="100%" height="100%" viewBox="0 0 512 512" version="1.1" xmlns="http://www.w3.org/2000/svg" xmlns:xlink="http://www.w3.org/1999/xlink" xml:space="preserve" xmlns:serif="http://www.serif.com/" style="fill-rule:evenodd;clip-rule:evenodd;stroke-linejoin:round;stroke-miterlimit:2;">
    <path d="M344,200C313.1,200 288,225.1 288,256C288,286.9 313.1,312 344,312C374.9,312 400,286.9 400,256C400,225.1 374.9,200 344,200ZM168,200C137.1,200 112,225.1 112,256C112,286.9 137.1,312 168,312C198.9,312 224,286.9 224,256C224,225.1 198.9,200 168,200ZM256,0C114.6,0 0,100.3 0,224C0,294.1 36.9,356.6 94.5,397.7C104.2,404.6 109.7,415.8 108,427.6L101.2,475.5C98.5,494.8 113.4,512 132.9,512L379.2,512C398.7,512 413.6,494.8 410.9,475.5L404.1,427.6C402.4,415.9 407.9,404.6 417.6,397.7C475.1,356.6 512,294.1 512,224C512,100.3 397.4,0 256,0ZM389.7,358.6C365.1,376.1 352.4,405.1 356.5,434.3L360.7,464L320,464L320,424C320,419.6 316.4,416 312,416L296,416C291.6,416 288,419.6 288,424L288,464L224,464L224,424C224,419.6 220.4,416 216,416L200,416C195.6,416 192,419.6 192,424L192,464L151.3,464L155.5,434.3C159.6,405.1 146.9,376.1 122.3,358.6C75.1,324.9 48,275.9 48,224C48,127 141.3,48 256,48C370.7,48 464,127 464,224C464,275.9 436.9,324.9 389.7,358.6Z" style="fill:rgb(13,202,242);fill-rule:nonzero;"/>
</svg>
