<?xml version="1.0" encoding="UTF-8" standalone="no"?><!DOCTYPE svg PUBLIC "-//W3C//DTD SVG 1.1//EN" "http://www.w3.org/Graphics/SVG/1.1/DTD/svg11.dtd"><svg width="100%" height="100%" viewBox="0 0 16 16" version="1.1" xmlns="http://www.w3.org/2000/svg" xmlns:xlink="http://www.w3.org/1999/xlink" xml:space="preserve" xmlns:serif="http://www.serif.com/" style="fill-rule:evenodd;clip-rule:evenodd;stroke-linejoin:round;stroke-miterlimit:2;"><clipPath id="_clip1"><rect x="0" y="0" width="16" height="16"/></clipPath><g clip-path="url(#_clip1)"><path d="M15.597,0.197c0.253,0.187 0.403,0.487 0.403,0.803l0,10.5c0,1.381 -1.344,2.5 -3,2.5c-1.656,0 -3,-1.119 -3,-2.5c0,-1.381 1.344,-2.5 3,-2.5c0.35,0 0.688,0.05 1,0.144l0,-4.55l-8,2.4l0,6.506c0,1.381 -1.344,2.5 -3,2.5c-1.656,0 -3,-1.119 -3,-2.5c0,-1.381 1.344,-2.5 3,-2.5c0.35,0 0.688,0.05 1,0.144l0,-7.144c0,-0.441 0.291,-0.831 0.713,-0.959l10,-3c0.303,-0.091 0.631,-0.035 0.884,0.156Z" style="fill:#fff;fill-rule:nonzero;"/></g></svg>